<svg width="146" height="128" viewBox="0 0 146 128" fill="none" xmlns="http://www.w3.org/2000/svg">
<g clip-path="url(#clip0_45_3357)">
<path d="M79.631 123.469C79.514 123.474 79.3982 123.443 79.2992 123.381C79.2003 123.318 79.123 123.226 79.0778 123.118C79.0327 123.01 79.0218 122.891 79.0467 122.776C79.0716 122.662 79.1311 122.558 79.2171 122.478L79.2562 122.322C79.251 122.31 79.2458 122.297 79.2406 122.285C79.1228 122.006 78.9253 121.769 78.673 121.602C78.4207 121.436 78.1249 121.347 77.8226 121.349C77.5203 121.35 77.2251 121.44 76.974 121.609C76.723 121.777 76.5273 122.016 76.4115 122.296C75.9488 123.411 75.3597 124.528 75.2146 125.707C75.1507 126.228 75.1777 126.757 75.2943 127.269C74.2075 124.896 73.6431 122.318 73.6395 119.708C73.6393 119.053 73.6756 118.399 73.7484 117.748C73.8085 117.214 73.892 116.685 73.9987 116.159C74.5812 113.305 75.8319 110.63 77.648 108.354C78.527 107.874 79.2378 107.136 79.6848 106.239C79.8467 105.917 79.9611 105.573 80.0245 105.218C79.9253 105.231 79.6506 103.72 79.7254 103.627C79.5872 103.417 79.3399 103.313 79.189 103.108C78.4384 102.09 77.4043 102.268 76.8645 103.651C75.7113 104.234 75.7001 105.2 76.4077 106.129C76.8579 106.72 76.9198 107.52 77.3148 108.152C77.2741 108.204 77.2319 108.255 77.1912 108.307C76.4484 109.263 75.8009 110.289 75.2581 111.371C75.3901 110.159 75.2326 108.932 74.7985 107.793C74.3585 106.731 73.5339 105.836 72.8077 104.918C71.9354 103.815 70.1466 104.296 69.993 105.694C69.9915 105.708 69.99 105.722 69.9886 105.735C70.0965 105.796 70.2021 105.861 70.3054 105.929C70.4351 106.016 70.5357 106.14 70.5939 106.285C70.652 106.43 70.6651 106.589 70.6313 106.741C70.5976 106.894 70.5186 107.033 70.4047 107.139C70.2908 107.246 70.1473 107.316 69.993 107.34L69.9772 107.342C70.0157 107.731 70.0836 108.117 70.1804 108.496C69.2488 112.101 71.2601 113.414 74.132 113.473C74.1954 113.506 74.2572 113.538 74.3206 113.569C73.7753 115.115 73.4332 116.726 73.303 118.361C73.2293 119.326 73.2337 120.294 73.316 121.258L73.3111 121.224C73.1031 120.152 72.5318 119.185 71.6937 118.486C70.4491 117.463 68.6906 117.086 67.3478 116.264C67.2051 116.172 67.0392 116.123 66.8696 116.123C66.7 116.123 66.5338 116.171 66.3907 116.262C66.2475 116.353 66.1334 116.483 66.0617 116.636C65.99 116.79 65.9637 116.961 65.986 117.13C65.9878 117.142 65.9896 117.154 65.9915 117.166C66.1916 117.247 66.3865 117.341 66.575 117.447C66.6829 117.508 66.7885 117.572 66.8918 117.641C67.0216 117.728 67.1221 117.852 67.1803 117.997C67.2385 118.141 67.2515 118.301 67.2178 118.453C67.184 118.606 67.105 118.744 66.9911 118.851C66.8772 118.958 66.7337 119.028 66.5794 119.052L66.5636 119.054C66.5523 119.056 66.5425 119.057 66.5311 119.059C66.8732 119.876 67.3532 120.628 67.9502 121.283C68.5327 124.43 71.0347 124.729 73.711 123.812H73.7126C74.0063 125.089 74.4317 126.332 74.9822 127.521H79.5173C79.5336 127.47 79.5482 127.418 79.5629 127.368C79.1431 127.394 78.7216 127.369 78.3079 127.293C78.6444 126.88 78.9809 126.463 79.3174 126.05C79.3249 126.043 79.332 126.034 79.3385 126.026C79.5092 125.814 79.6815 125.605 79.8522 125.393L79.8523 125.393C79.8614 124.745 79.7869 124.098 79.631 123.469Z" fill="#F2F2F2"/>
<path d="M72.9116 51.7089C67.8016 51.7089 62.8064 50.1925 58.5577 47.3516C54.3089 44.5107 50.9974 40.4728 49.0419 35.7485C47.0864 31.0242 46.5747 25.8258 47.5716 20.8105C48.5685 15.7952 51.0292 11.1884 54.6425 7.5726C58.2558 3.95679 62.8594 1.4944 67.8712 0.496797C72.8829 -0.500801 78.0778 0.0112019 82.7987 1.96806C87.5197 3.92492 91.5548 7.23875 94.3938 11.4905C97.2327 15.7422 98.748 20.7409 98.748 25.8544C98.7402 32.7091 96.0157 39.2807 91.1721 44.1277C86.3285 48.9747 79.7614 51.7011 72.9116 51.7089ZM72.9116 0.407168C67.8821 0.407168 62.9656 1.89962 58.7837 4.69581C54.6018 7.49199 51.3425 11.4663 49.4178 16.1162C47.4931 20.7661 46.9895 25.8827 47.9707 30.819C48.9519 35.7552 51.3738 40.2895 54.9302 43.8484C58.4866 47.4072 63.0177 49.8309 67.9505 50.8127C72.8834 51.7946 77.9964 51.2907 82.6431 49.3646C87.2897 47.4386 91.2612 44.177 94.0555 39.9922C96.8497 35.8074 98.3411 30.8874 98.3411 25.8544C98.3335 19.1077 95.6519 12.6396 90.8846 7.86892C86.1173 3.09828 79.6536 0.414792 72.9116 0.407168Z" fill="#F2F2F2"/>
<path d="M75.7464 35.219H70.2536C69.9839 35.219 69.7251 35.1118 69.5344 34.9209C69.3436 34.73 69.2365 34.4711 69.2365 34.2011C69.2365 33.9312 69.3436 33.6723 69.5344 33.4814C69.7251 33.2905 69.9839 33.1832 70.2536 33.1832H75.7464C76.0162 33.1832 76.2749 33.2905 76.4657 33.4814C76.6564 33.6723 76.7636 33.9312 76.7636 34.2011C76.7636 34.4711 76.6564 34.73 76.4657 34.9209C76.2749 35.1118 76.0162 35.219 75.7464 35.219Z" fill="#E6E6E6"/>
<path d="M77.0082 64.7617H68.9917C68.598 64.7617 68.2204 64.6052 67.942 64.3266C67.6636 64.048 67.5072 63.6701 67.5072 63.2761C67.5072 62.8821 67.6636 62.5043 67.942 62.2257C68.2204 61.9471 68.598 61.7905 68.9917 61.7905H77.0082C77.4019 61.7905 77.7795 61.9471 78.0579 62.2257C78.3363 62.5043 78.4928 62.8821 78.4928 63.2761C78.4928 63.6701 78.3363 64.048 78.0579 64.3266C77.7795 64.6052 77.4019 64.7617 77.0082 64.7617Z" fill="#FACC15"/>
<path d="M99.7951 58.5349H46.205C45.7275 58.5343 45.2697 58.3443 44.9321 58.0064C44.5944 57.6685 44.4045 57.2104 44.4039 56.7326V40.7447C44.4045 40.2668 44.5944 39.8087 44.9321 39.4708C45.2697 39.133 45.7275 38.9429 46.205 38.9424H99.7951C100.273 38.9429 100.73 39.133 101.068 39.4708C101.406 39.8087 101.596 40.2668 101.596 40.7447V56.7326C101.596 57.2104 101.406 57.6685 101.068 58.0064C100.73 58.3443 100.273 58.5343 99.7951 58.5349Z" fill="#E6E6E6"/>
<path d="M94.5881 57.3192H47.4201C46.9426 57.3186 46.4848 57.1286 46.1471 56.7907C45.8095 56.4528 45.6196 55.9947 45.619 55.5169V41.9613C45.6196 41.4835 45.8095 41.0254 46.1471 40.6875C46.4848 40.3496 46.9426 40.1596 47.4201 40.159H98.5802C99.0577 40.1596 99.5155 40.3496 99.8531 40.6875C100.191 41.0254 100.381 41.4835 100.381 41.9613V51.522C100.38 53.059 99.7687 54.5325 98.6826 55.6193C97.5965 56.7061 96.124 57.3175 94.5881 57.3192Z" fill="white"/>
<path d="M78.3178 44.98H56.7787C56.6555 44.98 56.5374 44.9311 56.4503 44.8439C56.3631 44.7567 56.3142 44.6385 56.3142 44.5152C56.3142 44.3919 56.3631 44.2737 56.4503 44.1865C56.5374 44.0994 56.6555 44.0504 56.7787 44.0504H78.3178C78.441 44.0504 78.5592 44.0994 78.6463 44.1865C78.7334 44.2737 78.7823 44.3919 78.7823 44.5152C78.7823 44.6385 78.7334 44.7567 78.6463 44.8439C78.5592 44.9311 78.441 44.98 78.3178 44.98Z" fill="#FACC15"/>
<path d="M89.2213 46.8812H56.7787C56.6555 46.8812 56.5374 46.8322 56.4503 46.745C56.3631 46.6578 56.3142 46.5396 56.3142 46.4163C56.3142 46.2931 56.3631 46.1748 56.4503 46.0877C56.5374 46.0005 56.6555 45.9515 56.7787 45.9515H89.2213C89.3445 45.9515 89.4627 46.0005 89.5498 46.0877C89.6369 46.1748 89.6858 46.2931 89.6858 46.4163C89.6858 46.5396 89.6369 46.6578 89.5498 46.745C89.4627 46.8322 89.3445 46.8812 89.2213 46.8812Z" fill="#E6E6E6"/>
<path d="M89.2213 49.0634H56.7787C56.7176 49.0635 56.6571 49.0516 56.6006 49.0283C56.5442 49.005 56.4929 48.9707 56.4496 48.9276C56.4064 48.8844 56.3721 48.8331 56.3487 48.7766C56.3253 48.7202 56.3132 48.6597 56.3132 48.5985C56.3132 48.5374 56.3253 48.4769 56.3487 48.4204C56.3721 48.364 56.4064 48.3127 56.4496 48.2695C56.4929 48.2264 56.5442 48.1921 56.6006 48.1688C56.6571 48.1455 56.7176 48.1336 56.7787 48.1337H89.2213C89.3443 48.134 89.4622 48.1831 89.5491 48.2702C89.636 48.3574 89.6848 48.4754 89.6848 48.5985C89.6848 48.7217 89.636 48.8397 89.5491 48.9269C89.4622 49.014 89.3443 49.0631 89.2213 49.0634Z" fill="#E6E6E6"/>
<path d="M89.2213 51.2456H56.7787C56.7176 51.2457 56.6571 51.2338 56.6006 51.2105C56.5442 51.1872 56.4929 51.153 56.4496 51.1098C56.4064 51.0666 56.3721 51.0153 56.3487 50.9589C56.3253 50.9024 56.3132 50.8419 56.3132 50.7808C56.3132 50.7196 56.3253 50.6591 56.3487 50.6027C56.3721 50.5462 56.4064 50.4949 56.4496 50.4517C56.4929 50.4086 56.5442 50.3744 56.6006 50.3511C56.6571 50.3277 56.7176 50.3158 56.7787 50.3159H89.2213C89.3443 50.3162 89.4622 50.3653 89.5491 50.4524C89.636 50.5396 89.6848 50.6577 89.6848 50.7808C89.6848 50.9039 89.636 51.022 89.5491 51.1091C89.4622 51.1962 89.3443 51.2453 89.2213 51.2456Z" fill="#E6E6E6"/>
<path d="M89.2213 53.4278H56.7787C56.7176 53.4279 56.6571 53.416 56.6006 53.3927C56.5442 53.3694 56.4929 53.3352 56.4496 53.292C56.4064 53.2488 56.3721 53.1976 56.3487 53.1411C56.3253 53.0847 56.3132 53.0241 56.3132 52.963C56.3132 52.9019 56.3253 52.8414 56.3487 52.7849C56.3721 52.7284 56.4064 52.6772 56.4496 52.634C56.4929 52.5908 56.5442 52.5566 56.6006 52.5333C56.6571 52.51 56.7176 52.4981 56.7787 52.4982H89.2213C89.3443 52.4984 89.4622 52.5475 89.5491 52.6347C89.636 52.7218 89.6848 52.8399 89.6848 52.963C89.6848 53.0861 89.636 53.2042 89.5491 53.2913C89.4622 53.3785 89.3443 53.4276 89.2213 53.4278Z" fill="#E6E6E6"/>
<path d="M117.726 125.371L115.549 125.371L114.514 116.967L117.727 116.968L117.726 125.371Z" fill="#A0616A"/>
<path d="M117.803 127.643L111.108 127.643V127.559C111.108 126.867 111.383 126.204 111.871 125.715C112.36 125.226 113.023 124.951 113.714 124.951L114.937 124.023L117.219 124.951L117.803 124.951L117.803 127.643Z" fill="#2F2E41"/>
<path d="M135.525 122.581L133.574 123.548L128.918 116.479L131.797 115.051L135.525 122.581Z" fill="#A0616A"/>
<path d="M136.602 124.584L130.603 127.558L130.565 127.482C130.259 126.862 130.21 126.146 130.431 125.49C130.652 124.835 131.124 124.295 131.743 123.988L132.427 122.612L134.884 122.431L135.408 122.171L136.602 124.584Z" fill="#2F2E41"/>
<path d="M111.277 80.2025C111.277 80.2025 108.799 83.6596 110.588 89.6323C112.376 95.605 111.372 100.945 111.874 102.016C112.376 103.086 113.387 104.103 112.552 104.915C111.717 105.727 111.277 106.387 111.937 106.607C112.596 106.827 114.795 122.229 114.795 122.229L118.533 122.449C118.533 122.449 119.887 115.295 118.441 109.52C118.441 109.52 118.758 105.329 118.096 104.097C117.434 102.866 117.563 103.977 117.608 102.431C117.633 101.314 117.796 100.203 118.093 99.1256C118.313 98.2455 118.441 89.3747 118.441 89.3747L122.079 101.146C122.225 101.552 122.28 101.985 122.24 102.414C122.15 103.02 122.149 103.927 122.259 104.244C122.37 104.561 122.493 104.627 122.431 105.254C122.37 105.881 129.693 119.093 129.693 119.093L133.332 116.65L129.747 105.067C129.391 104.672 129.095 104.227 128.868 103.746C128.428 102.866 128.411 102.818 128.639 102.182C128.868 101.546 128.868 100.307 128.868 99.9365C128.868 99.5657 129.096 82.7336 126.233 80.2578C123.37 77.7821 111.277 80.2025 111.277 80.2025Z" fill="#2F2E41"/>
<path d="M124.719 53.4236L123.974 51.3017L121.94 49.2659L118.187 48.8176L115.744 50.4248L113.482 52.6567L110.14 80.4134C110.14 80.4134 125.923 86.5027 127.991 81.3924L124.719 53.4236Z" fill="#CCCCCC"/>
<path d="M125.999 53.4236L123.806 51.2298C123.806 51.2298 122.759 65.2506 123.205 66.2367C123.651 67.2228 124.177 66.9712 123.609 67.5041C123.041 68.0371 122.431 67.5082 123.041 68.4852C123.401 69.033 123.577 69.681 123.545 70.3356C123.545 70.3356 126.703 90.2272 128.534 90.2272C130.365 90.2272 131.511 89.6908 131.446 89.1447C131.382 88.5985 130.302 87.2387 130.638 86.9007C130.975 86.5628 131.805 86.818 130.983 86.1814C130.161 85.5449 129.754 85.7484 129.958 84.9341C130.161 84.1198 128.606 73.5634 128.606 73.5634L128.454 55.9308L125.999 53.4236Z" fill="#3F3D56"/>
<path d="M115.744 50.4248L112.905 50.8268L109.53 52.116C109.53 52.116 111.072 69.5183 110.75 70.101C110.428 70.6837 109.856 70.3198 110.345 70.9089C110.835 71.498 111.275 71.2367 110.75 71.7745C110.224 72.3123 109.34 71.631 109.884 72.5824C110.428 73.5338 107.807 86.6324 108.513 87.335C109.219 88.0377 111.037 87.6004 111.037 87.0816C110.982 86.5224 110.771 85.99 110.428 85.5449C110.33 85.4321 110.275 85.2874 110.275 85.1377C110.275 84.988 110.33 84.8433 110.428 84.7305C110.716 84.4531 110.914 84.0951 110.996 83.7033C111.038 83.3055 111.349 82.8166 111.499 82.4503C111.649 82.084 115.421 57.29 115.421 57.29L115.744 50.4248Z" fill="#3F3D56"/>
<path d="M103.63 64.1271L104.911 63.4581C103.312 62.0151 99.3454 59.6541 99.3454 59.6541L92.5087 55.0417C92.4086 54.8059 92.2482 54.6007 92.0436 54.4467C91.8391 54.2926 91.5976 54.1952 91.3435 54.1643C91.0893 54.1334 90.8316 54.17 90.5961 54.2704C90.3606 54.3708 90.1557 54.5316 90.002 54.7365C89.8483 54.9413 89.7513 55.1831 89.7207 55.4374C89.69 55.6918 89.7269 55.9497 89.8276 56.1852C89.9282 56.4208 90.0891 56.6256 90.294 56.7792C90.499 56.9327 90.7407 57.0295 90.9949 57.0598L98.6566 63.9288L103.63 64.1271Z" fill="#A0616A"/>
<path d="M112.989 59.0377L113.002 53.412L109.879 51.9174L102.003 60.2591L101.393 59.852H99.9687L96.5103 63.9235C96.5103 63.9235 98.3522 65.0159 99.2622 64.5715C100.172 64.1271 100.087 64.7656 100.087 64.7656C100.222 64.9355 100.41 65.0549 100.621 65.1046C100.832 65.1543 101.054 65.1314 101.25 65.0396C102.003 64.7379 103.427 65.5522 103.427 65.5522L112.989 59.0377Z" fill="#3F3D56"/>
<path d="M120.474 47.5253C122.989 47.5253 125.028 45.4849 125.028 42.9679C125.028 40.4509 122.989 38.4105 120.474 38.4105C117.958 38.4105 115.919 40.4509 115.919 42.9679C115.919 45.4849 117.958 47.5253 120.474 47.5253Z" fill="#A0616A"/>
<path d="M125.971 44.125C125.541 44.967 124.964 45.7252 124.268 46.3638C124.068 46.5913 123.812 46.7635 123.526 46.8639C123.383 46.9107 123.227 46.9057 123.087 46.8496C122.947 46.7936 122.83 46.69 122.758 46.5571L122.674 46.4416C122.918 46.367 123.148 46.253 123.356 46.1042C123.459 46.0293 123.542 45.9308 123.6 45.817C123.657 45.7032 123.687 45.5774 123.686 45.4499C123.678 45.3225 123.622 45.203 123.528 45.1164C123.434 45.0298 123.311 44.9829 123.183 44.9856C122.899 45.0194 122.645 45.3519 122.39 45.2237C122.184 45.119 122.213 44.819 122.272 44.5926C122.589 43.4108 122.457 41.5791 122.001 41.515C121.547 41.4226 121.115 41.2456 120.727 40.9933C120.338 40.7406 119.904 40.5659 119.449 40.479C119.416 40.4746 119.383 40.4723 119.347 40.4694C119.334 40.2258 119.292 39.9846 119.221 39.7511C119.172 39.9976 119.096 40.2382 118.996 40.4687C118.601 40.5225 118.203 40.5427 117.805 40.529C117.381 40.4797 116.163 41.4683 116.154 41.3322C116.141 41.0886 116.098 40.8474 116.028 40.6139C115.978 40.8604 115.903 41.101 115.802 41.3315C115.798 41.341 115.795 41.3489 115.791 41.3583C115.661 41.0423 115.624 40.6888 115.627 40.9528C115.355 39.2734 115.895 38.2623 117.272 37.2664C117.547 37.0468 117.874 36.9006 118.221 36.8416C118.394 36.8139 118.571 36.8313 118.736 36.8922C118.901 36.9531 119.047 37.0553 119.16 37.1891C119.689 36.9092 120.283 36.7758 120.881 36.8029C121.478 36.83 122.058 37.0166 122.559 37.3432C123.55 38.0074 124.332 38.4493 124.2 39.637C125.139 39.7275 125.932 40.4822 126.229 41.3766C126.523 42.2725 126.37 43.2722 125.971 44.125Z" fill="#2F2E41"/>
<path d="M131.785 67.8721L128.517 67.4037C127.412 69.2528 127.02 74.1744 127.02 74.1744L123.822 81.7798C123.61 81.9237 123.44 82.1209 123.329 82.3516C123.217 82.5822 123.169 82.8382 123.187 83.0937C123.206 83.3491 123.292 83.5951 123.436 83.8069C123.58 84.0186 123.778 84.1886 124.008 84.2998C124.239 84.411 124.495 84.4594 124.75 84.4402C125.005 84.421 125.251 84.3349 125.462 84.1904C125.674 84.046 125.843 83.8484 125.954 83.6174C126.065 83.3865 126.113 83.1305 126.094 82.875L131.344 74.0227L131.785 67.8721Z" fill="#A0616A"/>
<path d="M124.261 56.5345L125.646 54.6263L128.453 55.9318L130.788 64.9448C130.788 64.9448 132.493 66.0552 132.13 66.8385C131.766 67.6217 131.572 68.2538 131.948 68.7026C132.324 69.1514 133.419 69.1844 132.604 69.9163C131.788 70.6481 132.486 72.5602 132.486 72.5602L131.705 74.306L126.822 74.1024L124.261 56.5345Z" fill="#3F3D56"/>
<path d="M11.3391 84.488C11.6473 84.246 11.849 83.8933 11.9012 83.5048C11.9535 83.1163 11.8522 82.7227 11.6189 82.4078C11.5704 82.3446 11.5169 82.2854 11.4587 82.231L13.5435 77.4135L11.4729 75.4948L9.32994 82.4032C9.12315 82.6621 9.00782 82.9822 9.00195 83.3136C8.99607 83.6449 9.09998 83.9689 9.29746 84.235C9.41129 84.3853 9.55359 84.5117 9.71623 84.607C9.87887 84.7023 10.0587 84.7646 10.2454 84.7903C10.4321 84.8161 10.622 84.8048 10.8043 84.7571C10.9867 84.7093 11.1578 84.6262 11.308 84.5123C11.3185 84.5043 11.3289 84.4962 11.3391 84.488Z" fill="#FFB6B6"/>
<path d="M23.4512 53.2357C23.4512 53.2357 21.9079 50.2999 18.3279 53.4704C14.7478 56.6409 10.5173 72.5109 10.5995 73.1075C10.6816 73.7041 11.5567 73.4681 10.4499 74.3271C9.34309 75.1862 8.73113 74.4144 9.34309 75.1862C9.95504 75.958 11.3235 76.7756 10.1118 76.8904C8.90014 77.0052 13.3421 78.9176 13.3421 78.9176C13.3421 78.9176 14.0408 78.7497 14.2551 77.1365C14.3755 76.2304 13.9676 75.7159 14.6857 75.5649C15.4039 75.4139 14.7307 73.7753 14.8341 73.5174C14.9375 73.2596 20.6718 61.9988 20.6718 61.9988L23.4512 53.2357Z" fill="#FACC15"/>
<path d="M30.4989 124.937L33.0911 124.937L34.3245 114.93L30.4983 114.93L30.4989 124.937Z" fill="#FFB6B6"/>
<path d="M30.4075 127.643L38.3797 127.643V127.542C38.3797 126.719 38.0527 125.929 37.4708 125.347C36.8889 124.764 36.0997 124.437 35.2767 124.437H35.2765L33.8203 123.332L31.1033 124.437L30.4073 124.437L30.4075 127.643Z" fill="#2F2E41"/>
<path d="M12.3276 120.165L14.4483 121.657L21.2093 114.181L18.079 111.979L12.3276 120.165Z" fill="#FFB6B6"/>
<path d="M10.6973 122.326L17.2188 126.915L17.2768 126.832C17.7501 126.159 17.9367 125.324 17.7954 124.513C17.6541 123.702 17.1965 122.98 16.5234 122.506L15.9675 120.764L13.1093 120.104L12.5401 119.704L10.6973 122.326Z" fill="#2F2E41"/>
<path d="M20.1696 75.154L19.9542 75.6145C18.5383 78.6416 18.1762 82.0255 18.7265 85.3221C18.7674 85.4507 18.7596 85.59 18.7045 85.7132C18.3633 86.1138 18.8987 87.854 19.2056 88.8256L19.4822 90.5439C19.4822 90.5439 19.0235 92.1397 19.7202 92.0225C20.4169 91.9052 19.3794 93.6074 20.044 94.0338L21.7679 104.743L14.5757 116.605L17.2395 120.47L27.8946 106.742L28.0278 94.3466L29.626 104.343L29.7592 120.07L34.6053 119.555L36.3808 104.307L34.6872 83.2197L32.0234 74.0768L20.1696 75.154Z" fill="#2F2E41"/>
<path d="M23.4992 47.7003L27.4197 47.8871L29.2945 51.1282C30.1258 51.3777 30.8906 51.811 31.5322 52.3959C32.1739 52.9808 32.6761 53.7024 33.0017 54.5076L34.2225 57.5257L32.8337 74.976C32.8337 74.976 32.5554 76.0315 33.0679 75.8774C33.5805 75.7233 33.3716 77.0461 33.3716 77.0461L35.2607 84.317L18.0853 82.8225L19.039 75.1189C19.039 75.1189 17.713 75.1617 18.6453 74.2287C19.5777 73.2958 20.0311 73.593 19.1354 72.49C18.2398 71.387 18.1066 70.5873 18.1066 70.5873L17.7071 65.1227L17.0483 57.4322C16.9438 56.2119 17.144 54.9848 17.631 53.8611C18.118 52.7374 18.8764 51.7525 19.8381 50.9949L23.4992 47.7003Z" fill="#FACC15"/>
<path d="M25.5323 46.8004C28.2782 46.8004 30.5042 44.5729 30.5042 41.8251C30.5042 39.0773 28.2782 36.8497 25.5323 36.8497C22.7864 36.8497 20.5604 39.0773 20.5604 41.8251C20.5604 44.5729 22.7864 46.8004 25.5323 46.8004Z" fill="#FFB6B6"/>
<path d="M23.6111 46.3926C25.0378 46.3457 25.1674 45.9686 26.5942 45.9218C27.0484 45.9069 27.5845 45.8445 27.8042 45.4463C27.8681 45.2971 27.8965 45.1351 27.8873 44.9731C27.8781 44.811 27.8314 44.6533 27.7509 44.5123C27.5881 44.2325 27.4414 43.9436 27.3114 43.6471C27.2331 43.4146 27.2126 43.1665 27.2516 42.9242C27.2906 42.6819 27.3879 42.4528 27.5353 42.2567C27.6826 42.0605 27.8754 41.9032 28.0971 41.7983C28.3188 41.6935 28.5627 41.6442 28.8077 41.6548C29.2418 41.6736 29.6496 41.8779 30.0826 41.9153C30.6764 41.9665 31.9894 40.0045 31.716 39.4746C31.4499 38.9587 30.9144 38.5695 30.8302 37.995C30.7751 37.6194 30.9301 37.2461 30.9513 36.867C30.9827 36.3048 29.5587 37.5723 29.8195 37.0734C30.4592 35.8497 24.4311 34.3325 23.4386 35.8654C23.0677 36.4383 22.4067 36.3992 21.8175 36.7433C21.4314 36.9688 20.4563 37.7468 20.2346 38.2317C20.0309 38.7264 19.9347 39.2589 19.9522 39.7937C19.9433 42.2811 20.322 44.5691 22.3269 46.0394" fill="#2F2E41"/>
<path d="M37.7257 84.2742C37.4325 84.0142 37.2522 83.6501 37.2233 83.2591C37.1943 82.8682 37.3189 82.4814 37.5705 82.181C37.6227 82.1208 37.6797 82.0649 37.741 82.0141L35.9473 77.0806L38.1287 75.289L39.8557 82.3131C40.0466 82.5839 40.1427 82.9103 40.1288 83.2415C40.1149 83.5726 39.9918 83.8898 39.7788 84.1436C39.6562 84.2868 39.5066 84.4045 39.3386 84.4899C39.1706 84.5753 38.9874 84.6268 38.7995 84.6413C38.6116 84.6558 38.4226 84.6332 38.2435 84.5747C38.0643 84.5162 37.8984 84.4229 37.7553 84.3002C37.7453 84.2917 37.7354 84.283 37.7257 84.2742Z" fill="#FFB6B6"/>
<path d="M27.4995 52.3541C27.4995 52.3541 29.2152 49.5156 32.5997 52.8944C35.9842 56.2731 39.2605 72.3675 39.1429 72.9581C39.0253 73.5488 38.1659 73.261 39.2195 74.1845C40.273 75.1081 40.9299 74.3743 40.273 75.1081C39.6161 75.842 38.2013 76.5765 39.404 76.7634C40.6067 76.9504 36.0585 78.594 36.0585 78.594C36.0585 78.594 35.3711 78.3847 35.2534 76.7616C35.1873 75.8499 35.6252 75.3607 34.9173 75.167C34.2094 74.9734 34.9791 73.378 34.8913 73.1144C34.8035 72.8508 29.7512 61.2676 29.7512 61.2676L27.4995 52.3541Z" fill="#FACC15"/>
<path d="M76.9702 25.2988C76.9704 26.1042 76.7319 26.8917 76.2849 27.5615C75.8378 28.2314 75.2024 28.7535 74.4588 29.062C73.7152 29.3704 72.8969 29.4513 72.1075 29.2943C71.318 29.1374 70.5927 28.7497 70.0234 28.1803C69.4541 27.6108 69.0663 26.8853 68.9091 26.0953C68.7519 25.3053 68.8322 24.4865 69.1401 23.7422C69.4479 22.998 69.9694 22.3618 70.6386 21.9141C71.3077 21.4665 72.0945 21.2274 72.8994 21.2272C73.434 21.2265 73.9635 21.3313 74.4576 21.5356C74.9517 21.74 75.4006 22.0398 75.7787 22.418C76.1569 22.7962 76.4567 23.2453 76.6612 23.7397C76.8656 24.234 76.9706 24.7638 76.9702 25.2988Z" fill="#FACC15"/>
<path d="M72.9901 25.889C73.7766 25.889 74.4141 25.251 74.4141 24.4639C74.4141 23.6769 73.7766 23.0389 72.9901 23.0389C72.2036 23.0389 71.566 23.6769 71.566 24.4639C71.566 25.251 72.2036 25.889 72.9901 25.889Z" fill="white"/>
<path d="M74.5167 26.3981H71.4652C71.2764 26.3983 71.0954 26.4734 70.9619 26.607C70.8285 26.7406 70.7534 26.9217 70.7532 27.1106C70.7966 27.7209 70.8919 28.3263 71.038 28.9204C71.65 29.236 72.332 29.3909 73.0202 29.3706C73.7083 29.3503 74.3801 29.1555 74.9724 28.8044C75.1031 28.2476 75.1888 27.6812 75.2288 27.1106C75.2286 26.9217 75.1535 26.7406 75.02 26.607C74.8865 26.4734 74.7055 26.3983 74.5167 26.3981Z" fill="white"/>
<path d="M1.0715e-06 127.758C-9.37439e-05 127.79 0.00610489 127.821 0.0182382 127.851C0.0303715 127.88 0.0481987 127.907 0.070699 127.929C0.0931992 127.952 0.119928 127.97 0.149344 127.982C0.178759 127.994 0.210284 128 0.242103 128H145.758C145.822 128 145.884 127.974 145.929 127.929C145.975 127.884 146 127.822 146 127.758C146 127.693 145.975 127.632 145.929 127.586C145.884 127.541 145.822 127.515 145.758 127.515H0.242103C0.210284 127.515 0.178759 127.522 0.149344 127.534C0.119928 127.546 0.0932021 127.564 0.0707021 127.586C0.0482021 127.609 0.0303719 127.635 0.0182382 127.665C0.00610451 127.694 -9.26638e-05 127.726 1.0715e-06 127.758Z" fill="#CCCCCC"/>
</g>
<defs>
<clipPath id="clip0_45_3357">
<rect width="146" height="128" fill="white"/>
</clipPath>
</defs>
</svg>
