<svg width="261" height="193" viewBox="0 0 261 193" fill="none" xmlns="http://www.w3.org/2000/svg">
<g clip-path="url(#clip0_36_98)">
<g opacity="0.3">
<path d="M180.109 107.187H152.465C151.486 107.187 150.693 107.979 150.693 108.955V114.82C150.693 115.797 151.486 116.588 152.465 116.588H180.109C181.088 116.588 181.882 115.797 181.882 114.82V108.955C181.882 107.979 181.088 107.187 180.109 107.187Z" fill="#F2F2F2"/>
<path d="M212.748 116.588H185.105C184.126 116.588 183.332 117.379 183.332 118.355V124.221C183.332 125.197 184.126 125.988 185.105 125.988H212.748C213.727 125.988 214.521 125.197 214.521 124.221V118.355C214.521 117.379 213.727 116.588 212.748 116.588Z" fill="#F2F2F2"/>
<path d="M245.39 125.991H217.746C216.767 125.991 215.974 126.782 215.974 127.758V133.624C215.974 134.6 216.767 135.391 217.746 135.391H245.39C246.369 135.391 247.163 134.6 247.163 133.624V127.758C247.163 126.782 246.369 125.991 245.39 125.991Z" fill="#F2F2F2"/>
<path d="M180.109 93.0842H152.465C151.486 93.0842 150.693 93.8755 150.693 94.8516V100.717C150.693 101.693 151.486 102.485 152.465 102.485H180.109C181.088 102.485 181.882 101.693 181.882 100.717V94.8516C181.882 93.8755 181.088 93.0842 180.109 93.0842Z" fill="#F2F2F2"/>
<path d="M212.748 102.487H185.105C184.126 102.487 183.332 103.278 183.332 104.254V110.12C183.332 111.096 184.126 111.888 185.105 111.888H212.748C213.727 111.888 214.521 111.096 214.521 110.12V104.254C214.521 103.278 213.727 102.487 212.748 102.487Z" fill="#F2F2F2"/>
<path d="M245.39 111.888H217.746C216.767 111.888 215.974 112.679 215.974 113.655V119.521C215.974 120.497 216.767 121.288 217.746 121.288H245.39C246.369 121.288 247.163 120.497 247.163 119.521V113.655C247.163 112.679 246.369 111.888 245.39 111.888Z" fill="#F2F2F2"/>
<path d="M180.109 74.2833H152.465C151.486 74.2833 150.693 75.0745 150.693 76.0506V81.9164C150.693 82.8925 151.486 83.6837 152.465 83.6837H180.109C181.088 83.6837 181.882 82.8925 181.882 81.9164V76.0506C181.882 75.0745 181.088 74.2833 180.109 74.2833Z" fill="#F2F2F2"/>
<path d="M212.748 83.6837H185.105C184.126 83.6837 183.332 84.475 183.332 85.4511V91.3169C183.332 92.293 184.126 93.0842 185.105 93.0842H212.748C213.727 93.0842 214.521 92.293 214.521 91.3169V85.4511C214.521 84.475 213.727 83.6837 212.748 83.6837Z" fill="#F2F2F2"/>
<path d="M245.39 93.0842H217.746C216.767 93.0842 215.974 93.8755 215.974 94.8516V100.717C215.974 101.693 216.767 102.485 217.746 102.485H245.39C246.369 102.485 247.163 101.693 247.163 100.717V94.8516C247.163 93.8755 246.369 93.0842 245.39 93.0842Z" fill="#F2F2F2"/>
<path d="M180.109 60.1802H152.465C151.486 60.1802 150.693 60.9714 150.693 61.9475V67.8133C150.693 68.7894 151.486 69.5807 152.465 69.5807H180.109C181.088 69.5807 181.882 68.7894 181.882 67.8133V61.9475C181.882 60.9714 181.088 60.1802 180.109 60.1802Z" fill="#F2F2F2"/>
<path d="M212.748 69.5807H185.105C184.126 69.5807 183.332 70.3719 183.332 71.348V77.2138C183.332 78.1899 184.126 78.9811 185.105 78.9811H212.748C213.727 78.9811 214.521 78.1899 214.521 77.2138V71.348C214.521 70.3719 213.727 69.5807 212.748 69.5807Z" fill="#F2F2F2"/>
<path d="M245.39 78.9835H217.746C216.767 78.9835 215.974 79.7748 215.974 80.7508V86.6166C215.974 87.5927 216.767 88.384 217.746 88.384H245.39C246.369 88.384 247.163 87.5927 247.163 86.6166V80.7508C247.163 79.7748 246.369 78.9835 245.39 78.9835Z" fill="#F2F2F2"/>
<path opacity="0.1" d="M180.109 107.187H152.465C151.486 107.187 150.693 107.979 150.693 108.955V114.82C150.693 115.797 151.486 116.588 152.465 116.588H180.109C181.088 116.588 181.882 115.797 181.882 114.82V108.955C181.882 107.979 181.088 107.187 180.109 107.187Z" fill="#FACC15"/>
<path opacity="0.1" d="M212.748 116.588H185.105C184.126 116.588 183.332 117.379 183.332 118.355V124.221C183.332 125.197 184.126 125.988 185.105 125.988H212.748C213.727 125.988 214.521 125.197 214.521 124.221V118.355C214.521 117.379 213.727 116.588 212.748 116.588Z" fill="#FACC15"/>
<path opacity="0.1" d="M245.39 125.991H217.746C216.767 125.991 215.974 126.782 215.974 127.758V133.624C215.974 134.6 216.767 135.391 217.746 135.391H245.39C246.369 135.391 247.163 134.6 247.163 133.624V127.758C247.163 126.782 246.369 125.991 245.39 125.991Z" fill="#FACC15"/>
<path opacity="0.1" d="M180.109 93.0842H152.465C151.486 93.0842 150.693 93.8755 150.693 94.8516V100.717C150.693 101.693 151.486 102.485 152.465 102.485H180.109C181.088 102.485 181.882 101.693 181.882 100.717V94.8516C181.882 93.8755 181.088 93.0842 180.109 93.0842Z" fill="#FACC15"/>
<path opacity="0.1" d="M212.748 102.487H185.105C184.126 102.487 183.332 103.278 183.332 104.254V110.12C183.332 111.096 184.126 111.888 185.105 111.888H212.748C213.727 111.888 214.521 111.096 214.521 110.12V104.254C214.521 103.278 213.727 102.487 212.748 102.487Z" fill="#FACC15"/>
<path opacity="0.1" d="M245.39 111.888H217.746C216.767 111.888 215.974 112.679 215.974 113.655V119.521C215.974 120.497 216.767 121.288 217.746 121.288H245.39C246.369 121.288 247.163 120.497 247.163 119.521V113.655C247.163 112.679 246.369 111.888 245.39 111.888Z" fill="#FACC15"/>
<path opacity="0.1" d="M180.109 74.2833H152.465C151.486 74.2833 150.693 75.0745 150.693 76.0506V81.9164C150.693 82.8925 151.486 83.6837 152.465 83.6837H180.109C181.088 83.6837 181.882 82.8925 181.882 81.9164V76.0506C181.882 75.0745 181.088 74.2833 180.109 74.2833Z" fill="#FACC15"/>
<path opacity="0.1" d="M212.748 83.6837H185.105C184.126 83.6837 183.332 84.475 183.332 85.4511V91.3169C183.332 92.293 184.126 93.0842 185.105 93.0842H212.748C213.727 93.0842 214.521 92.293 214.521 91.3169V85.4511C214.521 84.475 213.727 83.6837 212.748 83.6837Z" fill="#FACC15"/>
<path opacity="0.1" d="M245.39 93.0842H217.746C216.767 93.0842 215.974 93.8755 215.974 94.8516V100.717C215.974 101.693 216.767 102.485 217.746 102.485H245.39C246.369 102.485 247.163 101.693 247.163 100.717V94.8516C247.163 93.8755 246.369 93.0842 245.39 93.0842Z" fill="#FACC15"/>
<path opacity="0.1" d="M180.109 60.1802H152.465C151.486 60.1802 150.693 60.9714 150.693 61.9475V67.8133C150.693 68.7894 151.486 69.5807 152.465 69.5807H180.109C181.088 69.5807 181.882 68.7894 181.882 67.8133V61.9475C181.882 60.9714 181.088 60.1802 180.109 60.1802Z" fill="#FACC15"/>
<path opacity="0.1" d="M212.748 69.5807H185.105C184.126 69.5807 183.332 70.3719 183.332 71.348V77.2138C183.332 78.1899 184.126 78.9811 185.105 78.9811H212.748C213.727 78.9811 214.521 78.1899 214.521 77.2138V71.348C214.521 70.3719 213.727 69.5807 212.748 69.5807Z" fill="#FACC15"/>
<path opacity="0.1" d="M245.39 78.9835H217.746C216.767 78.9835 215.974 79.7748 215.974 80.7508V86.6166C215.974 87.5927 216.767 88.384 217.746 88.384H245.39C246.369 88.384 247.163 87.5927 247.163 86.6166V80.7508C247.163 79.7748 246.369 78.9835 245.39 78.9835Z" fill="#FACC15"/>
</g>
<g opacity="0.3">
<path d="M57.9591 47.0071H30.3156C29.3366 47.0071 28.543 47.7984 28.543 48.7745V54.6403C28.543 55.6164 29.3366 56.4076 30.3156 56.4076H57.9591C58.9381 56.4076 59.7318 55.6164 59.7318 54.6403V48.7745C59.7318 47.7984 58.9381 47.0071 57.9591 47.0071Z" fill="#F2F2F2"/>
<path d="M90.5984 56.4076H62.9549C61.9759 56.4076 61.1823 57.1989 61.1823 58.175V64.0408C61.1823 65.0168 61.9759 65.8081 62.9549 65.8081H90.5984C91.5774 65.8081 92.371 65.0168 92.371 64.0408V58.175C92.371 57.1989 91.5774 56.4076 90.5984 56.4076Z" fill="#F2F2F2"/>
<path d="M123.24 65.8105H95.5966C94.6176 65.8105 93.824 66.6018 93.824 67.5778V73.4436C93.824 74.4197 94.6176 75.211 95.5966 75.211H123.24C124.219 75.211 125.013 74.4197 125.013 73.4436V67.5778C125.013 66.6018 124.219 65.8105 123.24 65.8105Z" fill="#F2F2F2"/>
<path d="M57.9591 32.9041H30.3156C29.3366 32.9041 28.543 33.6953 28.543 34.6714V40.5372C28.543 41.5133 29.3366 42.3045 30.3156 42.3045H57.9591C58.9381 42.3045 59.7318 41.5133 59.7318 40.5372V34.6714C59.7318 33.6953 58.9381 32.9041 57.9591 32.9041Z" fill="#F2F2F2"/>
<path d="M90.5984 42.3069H62.9549C61.9759 42.3069 61.1823 43.0982 61.1823 44.0743V49.94C61.1823 50.9161 61.9759 51.7074 62.9549 51.7074H90.5984C91.5774 51.7074 92.371 50.9161 92.371 49.94V44.0743C92.371 43.0982 91.5774 42.3069 90.5984 42.3069Z" fill="#F2F2F2"/>
<path d="M123.24 51.7074H95.5966C94.6176 51.7074 93.824 52.4987 93.824 53.4747V59.3405C93.824 60.3166 94.6176 61.1079 95.5966 61.1079H123.24C124.219 61.1079 125.013 60.3166 125.013 59.3405V53.4747C125.013 52.4987 124.219 51.7074 123.24 51.7074Z" fill="#F2F2F2"/>
<path d="M57.9591 14.1031H30.3156C29.3366 14.1031 28.543 14.8944 28.543 15.8704V21.7362C28.543 22.7123 29.3366 23.5036 30.3156 23.5036H57.9591C58.9381 23.5036 59.7318 22.7123 59.7318 21.7362V15.8704C59.7318 14.8944 58.9381 14.1031 57.9591 14.1031Z" fill="#F2F2F2"/>
<path d="M90.5984 23.5036H62.9549C61.9759 23.5036 61.1823 24.2948 61.1823 25.2709V31.1367C61.1823 32.1128 61.9759 32.904 62.9549 32.904H90.5984C91.5774 32.904 92.371 32.1128 92.371 31.1367V25.2709C92.371 24.2948 91.5774 23.5036 90.5984 23.5036Z" fill="#F2F2F2"/>
<path d="M123.24 32.9041H95.5966C94.6176 32.9041 93.824 33.6953 93.824 34.6714V40.5372C93.824 41.5133 94.6176 42.3045 95.5966 42.3045H123.24C124.219 42.3045 125.013 41.5133 125.013 40.5372V34.6714C125.013 33.6953 124.219 32.9041 123.24 32.9041Z" fill="#F2F2F2"/>
<path d="M57.9591 0H30.3156C29.3366 0 28.543 0.791268 28.543 1.76735V7.63313C28.543 8.60921 29.3366 9.40048 30.3156 9.40048H57.9591C58.9381 9.40048 59.7318 8.60921 59.7318 7.63313V1.76735C59.7318 0.791268 58.9381 0 57.9591 0Z" fill="#F2F2F2"/>
<path d="M90.5984 9.40045H62.9549C61.9759 9.40045 61.1823 10.1917 61.1823 11.1678V17.0336C61.1823 18.0097 61.9759 18.8009 62.9549 18.8009H90.5984C91.5774 18.8009 92.371 18.0097 92.371 17.0336V11.1678C92.371 10.1917 91.5774 9.40045 90.5984 9.40045Z" fill="#F2F2F2"/>
<path d="M123.24 18.8033H95.5966C94.6176 18.8033 93.824 19.5946 93.824 20.5707V26.4365C93.824 27.4126 94.6176 28.2038 95.5966 28.2038H123.24C124.219 28.2038 125.013 27.4126 125.013 26.4365V20.5707C125.013 19.5946 124.219 18.8033 123.24 18.8033Z" fill="#F2F2F2"/>
<path opacity="0.1" d="M57.9591 47.0071H30.3156C29.3366 47.0071 28.543 47.7984 28.543 48.7745V54.6403C28.543 55.6164 29.3366 56.4076 30.3156 56.4076H57.9591C58.9381 56.4076 59.7318 55.6164 59.7318 54.6403V48.7745C59.7318 47.7984 58.9381 47.0071 57.9591 47.0071Z" fill="#FACC15"/>
<path opacity="0.1" d="M90.5984 56.4076H62.9549C61.9759 56.4076 61.1823 57.1989 61.1823 58.175V64.0408C61.1823 65.0168 61.9759 65.8081 62.9549 65.8081H90.5984C91.5774 65.8081 92.371 65.0168 92.371 64.0408V58.175C92.371 57.1989 91.5774 56.4076 90.5984 56.4076Z" fill="#FACC15"/>
<path opacity="0.1" d="M123.24 65.8105H95.5966C94.6176 65.8105 93.824 66.6018 93.824 67.5778V73.4436C93.824 74.4197 94.6176 75.211 95.5966 75.211H123.24C124.219 75.211 125.013 74.4197 125.013 73.4436V67.5778C125.013 66.6018 124.219 65.8105 123.24 65.8105Z" fill="#FACC15"/>
<path opacity="0.1" d="M57.9591 32.9041H30.3156C29.3366 32.9041 28.543 33.6953 28.543 34.6714V40.5372C28.543 41.5133 29.3366 42.3045 30.3156 42.3045H57.9591C58.9381 42.3045 59.7318 41.5133 59.7318 40.5372V34.6714C59.7318 33.6953 58.9381 32.9041 57.9591 32.9041Z" fill="#FACC15"/>
<path opacity="0.1" d="M90.5984 42.3069H62.9549C61.9759 42.3069 61.1823 43.0982 61.1823 44.0743V49.94C61.1823 50.9161 61.9759 51.7074 62.9549 51.7074H90.5984C91.5774 51.7074 92.371 50.9161 92.371 49.94V44.0743C92.371 43.0982 91.5774 42.3069 90.5984 42.3069Z" fill="#FACC15"/>
<path opacity="0.1" d="M123.24 51.7074H95.5966C94.6176 51.7074 93.824 52.4987 93.824 53.4747V59.3405C93.824 60.3166 94.6176 61.1079 95.5966 61.1079H123.24C124.219 61.1079 125.013 60.3166 125.013 59.3405V53.4747C125.013 52.4987 124.219 51.7074 123.24 51.7074Z" fill="#FACC15"/>
<path opacity="0.1" d="M57.9591 14.1031H30.3156C29.3366 14.1031 28.543 14.8944 28.543 15.8704V21.7362C28.543 22.7123 29.3366 23.5036 30.3156 23.5036H57.9591C58.9381 23.5036 59.7318 22.7123 59.7318 21.7362V15.8704C59.7318 14.8944 58.9381 14.1031 57.9591 14.1031Z" fill="#FACC15"/>
<path opacity="0.1" d="M90.5984 23.5036H62.9549C61.9759 23.5036 61.1823 24.2948 61.1823 25.2709V31.1367C61.1823 32.1128 61.9759 32.904 62.9549 32.904H90.5984C91.5774 32.904 92.371 32.1128 92.371 31.1367V25.2709C92.371 24.2948 91.5774 23.5036 90.5984 23.5036Z" fill="#FACC15"/>
<path opacity="0.1" d="M123.24 32.9041H95.5966C94.6176 32.9041 93.824 33.6953 93.824 34.6714V40.5372C93.824 41.5133 94.6176 42.3045 95.5966 42.3045H123.24C124.219 42.3045 125.013 41.5133 125.013 40.5372V34.6714C125.013 33.6953 124.219 32.9041 123.24 32.9041Z" fill="#FACC15"/>
<path opacity="0.1" d="M57.9591 0H30.3156C29.3366 0 28.543 0.791268 28.543 1.76735V7.63313C28.543 8.60921 29.3366 9.40048 30.3156 9.40048H57.9591C58.9381 9.40048 59.7318 8.60921 59.7318 7.63313V1.76735C59.7318 0.791268 58.9381 0 57.9591 0Z" fill="#FACC15"/>
<path opacity="0.1" d="M90.5984 9.40045H62.9549C61.9759 9.40045 61.1823 10.1917 61.1823 11.1678V17.0336C61.1823 18.0097 61.9759 18.8009 62.9549 18.8009H90.5984C91.5774 18.8009 92.371 18.0097 92.371 17.0336V11.1678C92.371 10.1917 91.5774 9.40045 90.5984 9.40045Z" fill="#FACC15"/>
<path opacity="0.1" d="M123.24 18.8033H95.5966C94.6176 18.8033 93.824 19.5946 93.824 20.5707V26.4365C93.824 27.4126 94.6176 28.2038 95.5966 28.2038H123.24C124.219 28.2038 125.013 27.4126 125.013 26.4365V20.5707C125.013 19.5946 124.219 18.8033 123.24 18.8033Z" fill="#FACC15"/>
</g>
<g opacity="0.1">
<path d="M70.5248 131.35C70.5285 132.698 70.3893 134.043 70.1097 135.363C70.0572 135.6 70 135.855 69.9427 136.093C68.4707 141.985 64.3124 146.295 59.3524 146.559C59.1878 146.559 59.0208 146.573 58.849 146.573C53.6004 146.573 49.1677 142.054 47.7052 135.85C47.6623 135.684 47.6265 135.52 47.5907 135.353C47.3111 134.034 47.172 132.689 47.1756 131.34C47.1756 122.922 52.4004 116.117 58.849 116.117C65.2977 116.117 70.5248 122.932 70.5248 131.35Z" fill="#3F3D56"/>
<path opacity="0.1" d="M70.5248 131.35C70.5284 132.698 70.3893 134.043 70.1097 135.363C70.0572 135.6 70 135.855 69.9427 136.093C69.7662 136.093 69.5944 136.093 69.4202 136.071C68.1358 136.001 66.8592 135.827 65.603 135.551C64.4891 135.893 63.3511 136.152 62.1986 136.326C61.3147 136.455 60.4242 136.534 59.5313 136.564C59.2307 136.564 58.9301 136.58 58.6295 136.58C57.5604 136.58 56.4925 136.509 55.4326 136.369C53.7221 136.139 52.0421 135.722 50.4226 135.127C49.5351 135.419 48.6308 135.657 47.7148 135.841C47.6718 135.674 47.636 135.51 47.6002 135.344C47.3207 134.024 47.1815 132.679 47.1851 131.331C47.1851 122.913 52.4099 116.107 58.8586 116.107C65.3072 116.107 70.5248 122.932 70.5248 131.35Z" fill="black"/>
<path d="M95.4295 102.965C95.4346 99.2618 94.5641 95.6093 92.8887 92.304L79.1588 96.5595L91.2091 89.4948C89.1886 86.5827 86.5377 84.1605 83.4522 82.407C80.3668 80.6535 76.9256 79.6136 73.3829 79.3641C72.82 78.511 72.2024 77.695 71.5339 76.9212L51.7967 83.0415L67.9696 73.5602C64.8765 71.1973 61.2474 69.6302 57.4027 68.9972C53.5581 68.3643 49.6163 68.685 45.9255 69.9311C42.2347 71.1771 38.9084 73.3102 36.2404 76.1418C33.5725 78.9735 31.6449 82.4166 30.628 86.1671L47.5215 105.556L29.1703 92.3492C24.5297 95.6311 21.226 100.466 19.861 105.973C18.4959 111.48 19.1605 117.292 21.7335 122.351C24.3065 127.411 28.6169 131.38 33.8792 133.537C39.1415 135.693 45.0057 135.893 50.4034 134.1C55.2902 135.888 60.6298 136.035 65.6078 134.516C69.0761 135.28 72.6723 135.259 76.1313 134.454C79.5904 133.648 82.8241 132.079 85.5942 129.863C88.3644 127.646 90.6003 124.837 92.1373 121.645C93.6744 118.452 94.4733 114.956 94.4752 111.414C94.4752 110.889 94.4561 110.368 94.4227 109.849C95.0967 107.616 95.4359 105.297 95.4295 102.965Z" fill="#FACC15"/>
<path opacity="0.1" d="M95.0216 107.354C87.7706 105.983 80.3349 105.889 73.0513 107.076C64.8086 108.436 56.3822 111.426 48.3184 109.24C43.5875 107.956 39.4911 104.987 34.8747 103.341C30.4151 101.785 25.6094 101.496 20.9945 102.506C19.2343 106.7 18.7228 111.311 19.5211 115.788C20.3195 120.264 22.394 124.417 25.4965 127.749C28.5991 131.081 32.5985 133.452 37.0167 134.578C41.4348 135.705 46.0848 135.538 50.4107 134.1C55.2953 135.887 60.6321 136.033 65.6078 134.516C69.0762 135.28 72.6724 135.259 76.1314 134.454C79.5905 133.648 82.8242 132.079 85.5943 129.863C88.3645 127.646 90.6004 124.837 92.1374 121.645C93.6744 118.452 94.4734 114.956 94.4753 111.414C94.4753 110.889 94.4562 110.368 94.4228 109.849C94.668 109.029 94.8679 108.196 95.0216 107.354Z" fill="black"/>
</g>
<path opacity="0.1" d="M130.5 190.079C202.573 190.079 261 179.483 261 166.411C261 153.34 202.573 142.744 130.5 142.744C58.4268 142.744 0 153.34 0 166.411C0 179.483 58.4268 190.079 130.5 190.079Z" fill="#FACC15"/>
<path d="M173.367 169.14C173.543 168.424 173.891 167.762 174.382 167.212C174.872 166.661 175.491 166.239 176.182 165.981C176.874 165.723 177.619 165.637 178.352 165.732C179.084 165.826 179.783 166.098 180.386 166.523L180.572 166.659C184.563 169.642 182.194 175.112 180.572 175.236C178.95 175.36 175.829 175.493 175.829 175.493C175.829 175.493 172.153 173.98 173.367 169.14Z" fill="#192534"/>
<path d="M209.377 165.422V166.416C209.377 166.416 193.154 167.534 191.422 167.534H188.18C188.18 167.534 188.132 167.584 188.054 167.674C187.92 167.824 187.693 168.088 187.443 168.417C186.932 169.078 186.324 170.001 186.183 170.767C185.945 172.134 185.062 172.631 185.062 172.631L181.82 171.763L178.692 168.034L178.236 167.596L176.938 166.361L175.829 165.303L175.884 164.708V164.618C176.149 163.34 176.489 162.079 176.9 160.84C176.9 160.807 176.922 160.771 176.934 160.738C177.833 158.046 179.334 154.775 181.495 153.802C181.66 153.728 181.832 153.657 182.015 153.593L182.235 153.517C186.381 152.132 194.216 152.682 194.216 152.682C194.216 152.682 200.199 154.423 200.7 155.17C201.201 155.917 206.872 162.068 206.872 162.068C207.37 162.442 207.829 162.865 208.242 163.331C208.774 163.918 209.268 164.658 209.377 165.422Z" fill="#FACC15"/>
<path opacity="0.1" d="M175.335 173.628C176.3 173.628 177.082 172.403 177.082 170.893C177.082 169.382 176.3 168.157 175.335 168.157C174.371 168.157 173.589 169.382 173.589 170.893C173.589 172.403 174.371 173.628 175.335 173.628Z" fill="white"/>
<path opacity="0.1" d="M182.569 154.73C182.569 154.73 181.137 156.918 179.625 159.725C179.624 159.732 179.624 159.739 179.625 159.746C179.222 160.493 178.811 161.281 178.42 162.087L178.403 162.125C178.403 162.125 177.575 161.471 176.924 160.833C176.924 160.8 176.946 160.764 176.957 160.731C177.857 158.038 179.358 154.768 181.519 153.795C181.684 153.721 181.855 153.65 182.039 153.586L182.569 154.73Z" fill="black"/>
<path opacity="0.1" d="M178.329 162.065C178.329 162.065 187.183 164.682 188.927 163.557C188.927 163.557 189.552 155.6 185.436 155.103C185.436 155.103 183.067 154.48 182.574 154.865C182.08 155.251 178.329 162.065 178.329 162.065Z" fill="white"/>
<path opacity="0.1" d="M189.8 156.221C189.8 156.221 191.546 162.81 192.794 162.936C194.042 163.062 206.631 162.81 206.135 161.939C205.639 161.069 200.149 155.477 200.149 155.477L189.8 156.221Z" fill="white"/>
<path d="M187.658 168.143C187.658 168.143 189.924 165.172 193.915 168.157C197.907 171.142 195.535 176.611 193.915 176.735C192.295 176.858 189.189 176.984 189.189 176.984C189.189 176.984 184.267 174.967 187.658 168.143Z" fill="#192534"/>
<path d="M211.198 168.899C211.032 168.43 210.77 168 210.428 167.636C210.087 167.273 209.674 166.984 209.215 166.788C208.756 166.591 208.262 166.492 207.762 166.496C207.263 166.5 206.77 166.607 206.314 166.811C205.868 167.02 205.446 167.276 205.054 167.574C201.502 170.229 203.623 175.098 205.054 175.21C205.572 175.248 206.262 175.288 206.932 175.324C207.618 175.361 208.304 175.238 208.934 174.965C209.565 174.692 210.124 174.278 210.566 173.753C211.009 173.229 211.323 172.61 211.485 171.944C211.647 171.278 211.651 170.583 211.498 169.915C211.417 169.571 211.317 169.232 211.198 168.899Z" fill="#192534"/>
<path opacity="0.1" d="M188.679 175.12C189.643 175.12 190.425 173.895 190.425 172.384C190.425 170.873 189.643 169.649 188.679 169.649C187.714 169.649 186.932 170.873 186.932 172.384C186.932 173.895 187.714 175.12 188.679 175.12Z" fill="white"/>
<path opacity="0.1" d="M193.541 167.163C193.541 167.163 193.302 163.557 197.158 165.048C201.013 166.54 198.529 168.157 198.529 168.157L193.541 167.163Z" fill="white"/>
<path opacity="0.1" d="M209.377 165.422V165.919L208.755 166.157L207.483 165.919C207.483 165.919 207.211 163.883 208.254 163.302C208.774 163.918 209.268 164.658 209.377 165.422Z" fill="white"/>
<path opacity="0.1" d="M209.377 165.446V166.416C209.377 166.416 193.154 167.534 191.422 167.534H191.408C190.511 167.058 189.614 166.847 188.86 167.163C188.63 167.258 188.415 167.382 188.218 167.534C188.161 167.579 188.106 167.627 188.054 167.674C187.816 167.892 187.61 168.142 187.443 168.417C186.326 170.217 186.565 173.005 186.565 173.005C183.323 173.999 179.956 171.39 179.956 171.39C179.346 169.563 178.775 168.371 178.253 167.584C177.776 166.87 177.342 166.521 176.955 166.349L175.829 165.303L175.884 164.708L184.933 171.269C184.933 171.269 185.806 165.674 187.796 166.047C189.786 166.421 193.782 166.421 193.782 166.421L209.377 165.446Z" fill="black"/>
<path d="M175.335 164.675C175.335 164.675 174.586 166.54 175.335 166.666C176.084 166.792 177.766 165.239 179.949 171.763C179.949 171.763 183.316 174.38 186.558 173.378C186.558 173.378 186.171 168.654 188.86 167.534C191.549 166.414 196.034 172.011 196.034 172.011V173.255L206.634 172.134C206.634 172.134 209.876 169.649 209.752 165.795L193.791 166.79C193.791 166.79 189.8 166.789 187.806 166.416C185.811 166.043 184.943 171.649 184.943 171.649L175.335 164.675Z" fill="#FACC15"/>
<path d="M130.448 130.672H130.445C126.761 130.672 123.775 133.65 123.775 137.323V137.325C123.775 140.998 126.761 143.976 130.445 143.976H130.448C134.132 143.976 137.118 140.998 137.118 137.325V137.323C137.118 133.65 134.132 130.672 130.448 130.672Z" fill="#192534"/>
<path d="M126.952 154.442C127.847 153.659 128.756 152.862 129.4 151.866C129.992 150.952 130.34 149.908 130.667 148.871C131.601 145.907 132.405 142.906 133.079 139.868C129.407 139.309 126.666 136.076 123.076 135.127C122.99 135.103 120.244 151.554 120.043 153.057C119.879 154.299 118.457 160.229 120.077 160.262C120.943 160.281 122.751 158.122 123.391 157.553L126.952 154.442Z" fill="#3F3D56"/>
<path opacity="0.1" d="M126.952 154.442C127.847 153.659 128.756 152.862 129.4 151.866C129.992 150.952 130.34 149.908 130.667 148.871C131.601 145.907 132.405 142.906 133.079 139.868C129.407 139.309 126.666 136.076 123.076 135.127C122.99 135.103 120.244 151.554 120.043 153.057C119.879 154.299 118.457 160.229 120.077 160.262C120.943 160.281 122.751 158.122 123.391 157.553L126.952 154.442Z" fill="black"/>
<path d="M81.578 112.934C81.1724 112.996 80.743 113.027 80.409 113.262C79.9318 113.595 79.8102 114.214 79.5835 114.751C79.2859 115.441 78.7818 116.023 78.1402 116.417C77.5938 116.75 76.9282 116.973 76.6013 117.52C76.4167 117.889 76.3288 118.298 76.3461 118.71C76.303 119.928 76.3581 121.149 76.5107 122.358C76.587 122.965 76.6872 123.583 76.5608 124.18C76.4153 124.877 75.9763 125.47 75.5588 126.048C74.5568 127.43 73.5762 128.947 73.4951 130.65C73.4546 131.507 73.6454 132.385 73.4283 133.215C73.0442 134.687 71.4792 135.648 71.1738 137.137C71.0831 137.577 71.107 138.043 70.9352 138.455C70.6346 139.168 69.8068 139.559 69.5944 140.294C69.4346 140.845 69.6684 141.428 69.6851 142.001C69.7089 142.841 69.2676 143.617 68.8429 144.34L66.3594 148.55C65.553 149.915 64.7275 151.342 64.5915 152.922C64.4699 154.323 64.9065 155.71 65.386 157.032C66.4524 159.97 68.0365 163.081 70.9591 164.211C72.6792 164.877 74.5949 164.734 76.4344 164.582C78.9537 164.375 81.4897 164.163 83.9208 163.476C85.1256 163.136 86.3065 162.682 87.5233 162.439C88.3344 162.28 89.167 162.201 89.9496 161.942C90.7951 161.639 91.5434 161.114 92.1159 160.424C92.6884 159.733 93.0642 158.902 93.2037 158.017C94.2439 158.426 95.2077 157.066 95.0598 155.962C94.9119 154.858 94.1676 153.923 93.867 152.853C93.4375 151.376 93.867 149.773 94.5827 148.412C95.2984 147.051 96.2861 145.848 97.0662 144.523C97.9354 143.04 98.5392 141.417 98.8508 139.727C99.2683 137.446 99.1418 135.103 99.013 132.789L98.5215 123.943C98.4309 122.323 98.3283 120.651 97.6126 119.185C96.8277 117.589 95.3962 116.419 93.9672 115.356C91.8583 113.756 89.6467 112.296 87.3467 110.984C85.8628 110.156 85.9678 110.477 84.7868 111.459C83.8721 112.233 82.7625 112.743 81.578 112.934Z" fill="#3F3D56"/>
<path d="M101.633 137.546C99.9458 138.874 98.2376 140.22 96.9398 141.928C95.3721 144.004 94.4826 146.511 94.3918 149.109C94.3767 150.325 94.4621 151.539 94.6471 152.741C94.9024 154.704 95.3628 156.89 97.0209 157.974C98.0659 158.657 99.5021 158.828 100.215 159.851C100.44 160.172 100.571 160.565 100.833 160.848C101.31 161.361 102.055 161.473 102.742 161.511C103.769 161.569 104.798 161.537 105.82 161.416C106.986 161.276 108.172 161.021 109.327 161.24C111.574 161.661 113.251 163.776 115.529 164.059C117.421 164.297 119.194 163.2 120.778 162.156C122.412 161.078 124.118 159.925 125.003 158.181C125.865 156.488 125.817 154.494 125.75 152.594C125.676 150.484 125.6 148.348 125.034 146.312C124.859 145.779 124.724 145.233 124.631 144.68C124.462 143.253 125.108 141.849 125.585 140.484C126.327 138.407 126.652 135.848 125.177 134.207C124.555 133.512 123.689 133.084 122.811 132.779C118.934 131.39 114.654 131.918 110.677 132.542C106.881 133.115 104.61 135.208 101.633 137.546Z" fill="#3F3D56"/>
<path d="M134.508 129.326C132.972 131.626 131.43 133.943 130.321 136.462C129.564 138.29 128.927 140.165 128.412 142.075C126.881 147.353 125.361 152.746 122.303 157.315C121.864 157.972 121.377 158.654 121.332 159.442C121.289 160.179 121.642 160.869 121.983 161.526C122.699 162.915 123.448 164.318 124.469 165.512C125.49 166.706 126.711 167.61 127.942 168.533C130.498 170.436 133.337 172.453 136.531 172.31C137.192 172.279 137.898 172.127 138.34 171.635C138.781 171.142 138.843 170.462 138.764 169.829C138.526 167.872 137.046 166.333 135.706 164.882C134.365 163.431 133.017 161.735 133.124 159.756C133.208 158.122 134.281 156.728 135.31 155.453C136.486 153.992 137.664 152.534 138.774 151.024C143.571 144.494 147.036 137.07 149.782 129.452C150.939 126.236 151.991 122.858 151.63 119.461C149.006 118.819 143.758 116.673 141.541 118.888C140.198 120.23 139.248 122.218 138.201 123.8L134.508 129.326Z" fill="#FBBEBE"/>
<path d="M156.667 106.992C155.004 109.884 153.703 112.967 152.792 116.174C152.57 116.949 152.372 117.768 152.542 118.553C152.726 119.395 153.3 120.087 153.735 120.829C154.169 121.571 154.474 122.511 154.081 123.277C152.22 123.422 150.376 122.915 148.577 122.413L142.937 120.843C142.469 120.754 142.031 120.551 141.66 120.253C141.007 119.637 141.057 118.603 141.183 117.718C142.288 110.472 145.835 103.793 147.164 96.588C147.358 95.5485 147.56 94.3973 148.391 93.7336C150.776 91.8545 156.178 93.4458 157.413 96.167C158.795 99.1879 158.229 104.278 156.667 106.992Z" fill="#FACC15"/>
<path d="M126.475 82.2304C126.263 82.3398 126.024 82.4683 125.96 82.6919C125.946 82.8136 125.958 82.937 125.997 83.0533C126.036 83.1696 126.1 83.276 126.184 83.365L128.591 86.7427C130.965 90.0729 133.344 93.4244 136.09 96.4619C138.163 98.7536 140.433 100.86 142.875 102.756C143.562 103.289 144.294 103.843 144.631 104.645C143.13 100.215 143.397 95.3798 145.375 91.1409C146.162 89.4758 147.203 87.932 148.021 86.2765C148.098 86.1855 148.15 86.0763 148.173 85.9592C148.195 85.8422 148.187 85.7214 148.149 85.6085C148.111 85.4956 148.044 85.3944 147.955 85.3147C147.866 85.2351 147.758 85.1796 147.642 85.1538C145.556 84.0834 143.276 83.4364 141.2 82.347C139.571 81.4906 138.099 80.3774 136.636 79.2809C135.331 78.3032 133.594 76.5763 131.984 76.1648C130.245 75.7176 130.314 77.2994 129.753 78.6196C129.109 80.1626 127.951 81.4375 126.475 82.2304Z" fill="#FBBEBE"/>
<path opacity="0.1" d="M126.475 82.2304C126.263 82.3398 126.024 82.4683 125.96 82.6919C125.946 82.8136 125.958 82.937 125.997 83.0533C126.036 83.1696 126.1 83.276 126.184 83.365L128.591 86.7427C130.965 90.0729 133.344 93.4244 136.09 96.4619C138.163 98.7536 140.433 100.86 142.875 102.756C143.562 103.289 144.294 103.843 144.631 104.645C143.13 100.215 143.397 95.3798 145.375 91.1409C146.162 89.4758 147.203 87.932 148.021 86.2765C148.098 86.1855 148.15 86.0763 148.173 85.9592C148.195 85.8422 148.187 85.7214 148.149 85.6085C148.111 85.4956 148.044 85.3944 147.955 85.3147C147.866 85.2351 147.758 85.1796 147.642 85.1538C145.556 84.0834 143.276 83.4364 141.2 82.347C139.571 81.4906 138.099 80.3774 136.636 79.2809C135.331 78.3032 133.594 76.5763 131.984 76.1648C130.245 75.7176 130.314 77.2994 129.753 78.6196C129.109 80.1626 127.951 81.4375 126.475 82.2304Z" fill="black"/>
<path d="M141.236 95.6912C140.146 94.4639 138.674 93.6527 137.383 92.6347C135.527 91.1694 134.06 89.2807 132.642 87.3897C130.042 83.9097 127.42 79.6472 128.715 75.4964C127.339 75.3632 126.151 76.4907 125.502 77.7062C124.853 78.9217 124.519 80.306 123.71 81.4216C122.482 83.1176 120.392 83.9073 118.445 84.6828C114.166 86.3901 110.031 88.4384 106.082 90.8078C104.495 91.7593 102.916 92.7798 101.704 94.1737C100.406 95.6603 99.5927 97.5038 98.4905 99.1332C96.3434 102.337 93.0797 104.742 89.4581 106.103C88.2653 106.555 86.9865 106.907 85.9201 107.625C83.6345 109.164 82.6826 112.232 83.2242 114.93C83.7657 117.627 85.6099 119.925 87.8263 121.557C90.0426 123.189 92.5667 124.152 95.1243 125.103C97.2682 125.888 99.4257 126.637 101.597 127.349C103.194 127.9 104.827 128.342 106.485 128.671C109.537 129.23 112.674 129.092 115.759 129.433C118.578 129.742 121.348 130.453 124.18 130.65C127.012 130.848 130.011 130.472 132.318 128.828C134.153 127.523 135.374 125.551 136.503 123.595C139.432 118.554 142.049 113.338 144.337 107.977C145.012 106.39 151.277 97.4039 149.717 96.2431C141.861 90.3987 144.469 99.685 143.719 98.9714C142.717 98.0152 142.142 96.7117 141.236 95.6912Z" fill="#FACC15"/>
<path d="M131.504 90.3155C129.818 86.933 128.677 83.3127 127.544 79.7114C127.231 78.7124 126.917 77.6324 127.253 76.6429C127.659 75.4536 128.956 74.4379 128.575 73.2462C125.54 74.1977 122.016 75.6891 121.417 78.8075C121.286 79.4878 121.31 80.2133 120.993 80.827C120.375 82.0306 118.8 82.2875 117.462 82.492C113.568 83.1129 109.699 84.678 107.031 87.5729C106.583 88.0486 106.161 88.5886 105.6 88.9454C105.194 89.1836 104.763 89.3751 104.314 89.5163C101.704 90.4511 99.0201 91.6166 97.3405 93.8169C96.4745 94.9491 95.921 96.3073 94.9548 97.3587C93.6474 98.7859 91.7221 99.4995 90.3074 100.829C89.3531 101.714 88.6731 102.837 88.0433 103.971C85.6194 108.339 83.842 113.46 85.1279 118.286C85.7983 120.81 87.2751 123.058 88.0696 125.546C89.1646 128.935 89.0572 132.801 91.1114 135.715C92.4068 137.546 94.4108 138.757 96.4626 139.67C101.028 141.695 106.043 142.5 111.016 142.006C112.859 141.792 114.691 141.484 116.503 141.083C120.828 140.194 125.199 139.226 129.128 137.213C135.83 133.781 140.651 127.646 145.256 121.7C146.131 120.567 147.014 119.426 147.641 118.132C148.255 116.897 148.624 115.56 149.037 114.247C150.433 109.821 152.396 105.413 152.213 100.779C152.22 100.224 152.11 99.674 151.89 99.1641C151.704 98.7835 151.413 98.4505 151.249 98.0675C150.958 97.3825 151.089 96.5904 150.884 95.8744C150.314 93.8763 147.68 93.4958 145.595 93.5124L144.927 105.237C144.824 106.997 144.635 108.95 143.321 110.13C142.759 110.612 142.057 110.903 141.317 110.961C140.578 111.019 139.839 110.84 139.208 110.451C137.805 109.545 137.607 107.963 137.617 106.448C137.631 104.545 137.476 102.801 136.867 100.977C135.608 97.1922 133.275 93.8716 131.504 90.3155Z" fill="#192534"/>
<path d="M132.335 123.726C140.642 127.925 148.997 132.154 156.431 137.744C158.148 139.033 159.818 140.398 161.634 141.55C166.837 144.846 173.293 146.452 177.308 151.114C178.153 152.092 178.869 153.191 179.842 154.037C180.687 154.729 181.631 155.29 182.643 155.703C185.868 157.122 189.362 157.837 192.887 157.798C193.81 157.786 194.76 157.717 195.59 157.322C197.826 156.243 198.334 153.35 198.56 150.883C198.637 150.048 198.653 149.064 197.995 148.545C197.64 148.267 197.17 148.195 196.723 148.127C189.468 146.985 182.774 143.502 176.712 139.366C170.65 135.229 165.093 130.401 159.115 126.145C157.013 124.649 154.861 123.224 152.709 121.799L145.745 117.19C142.061 114.751 138.182 112.24 133.783 111.781C133.533 111.737 133.276 111.754 133.034 111.83C132.647 111.98 132.433 112.38 132.244 112.746C130.953 115.253 129.381 117.53 127.799 119.851C126.952 121.093 126.857 121.414 128.317 122.078C129.632 122.677 131.025 123.065 132.335 123.726Z" fill="#FBBEBE"/>
<path d="M148.658 193C148.753 193 148.844 192.962 148.911 192.896C148.978 192.829 149.016 192.738 149.016 192.643C149.016 192.549 148.978 192.458 148.911 192.391C148.844 192.324 148.753 192.286 148.658 192.286C148.563 192.286 148.472 192.324 148.405 192.391C148.338 192.458 148.3 192.549 148.3 192.643C148.3 192.738 148.338 192.829 148.405 192.896C148.472 192.962 148.563 193 148.658 193Z" fill="black"/>
<path d="M151.268 98.2864C163.871 98.2864 174.087 88.1 174.087 75.5344C174.087 62.9689 163.871 52.7825 151.268 52.7825C138.665 52.7825 128.448 62.9689 128.448 75.5344C128.448 88.1 138.665 98.2864 151.268 98.2864Z" fill="#FBBEBE"/>
<path d="M133.332 84.4069C133.737 82.3636 136.09 81.3313 138.172 81.1933C140.28 81.0804 142.38 81.5231 144.262 82.4768C146.143 83.4306 147.739 84.8617 148.889 86.6262C149.372 85.3508 149.697 84.0217 149.858 82.6681L153.675 82.9511C154.101 83.0169 154.537 82.9777 154.944 82.837C155.436 82.6181 155.739 82.1234 155.994 81.6476C157.664 78.5387 158.78 74.7233 161.915 73.0844V77.366C162.774 77.1995 163.582 76.8386 164.278 76.3111C164.974 75.7836 165.54 75.1036 165.931 74.3237C166.146 75.5089 166.488 76.6677 166.952 77.7799C167.028 77.9655 167.135 78.17 167.329 78.2176C167.423 78.2244 167.518 78.2112 167.607 78.1788C167.695 78.1464 167.776 78.0956 167.844 78.0297C169.306 76.9236 170.628 75.6458 171.783 74.2238L176.316 82.0591C178.935 75.4654 179.078 68.1506 176.719 61.4601C174.359 54.7696 169.657 49.1533 163.476 45.6442C162.428 45.0422 161.334 44.5228 160.205 44.0909C157.254 42.9825 154.073 42.628 150.927 42.414C146.453 42.1095 141.732 42.1214 137.805 44.2598C135.694 45.4087 133.94 47.1023 132.246 48.8054C129.956 51.1032 127.666 53.5318 126.447 56.5361C125.604 58.6103 125.316 60.8581 125.06 63.0798C124.905 64.4237 124.762 65.8129 125.146 67.1092C125.414 68.006 125.917 68.8124 126.256 69.6853C126.819 71.1363 126.907 72.7205 127.124 74.2619C127.606 77.6682 128.722 80.9548 130.414 83.9526C130.772 84.5877 131.23 85.2632 131.943 85.425C132.657 85.5867 133.513 84.8017 133.136 84.1833" fill="#192534"/>
<path d="M133.332 84.4069C133.737 82.3636 136.09 81.3313 138.172 81.1933C140.28 81.0804 142.38 81.5231 144.262 82.4768C146.143 83.4306 147.739 84.8617 148.889 86.6262C149.372 85.3508 149.697 84.0217 149.858 82.6681L153.675 82.9511C154.101 83.0169 154.537 82.9777 154.944 82.837C155.436 82.6181 155.739 82.1234 155.994 81.6476C157.664 78.5387 158.78 74.7233 161.915 73.0844V77.366C162.774 77.1995 163.582 76.8386 164.278 76.3111C164.974 75.7836 165.54 75.1036 165.931 74.3237C166.146 75.5089 166.488 76.6677 166.952 77.7799C167.028 77.9655 167.135 78.17 167.329 78.2176C167.423 78.2244 167.518 78.2112 167.607 78.1788C167.695 78.1464 167.776 78.0956 167.844 78.0297C169.306 76.9237 170.628 75.6458 171.783 74.2238L176.316 82.0591C178.935 75.4654 179.078 68.1506 176.719 61.4601C174.359 54.7696 169.657 49.1533 163.476 45.6442C162.428 45.0422 161.334 44.5228 160.205 44.0909C157.254 42.9825 154.073 42.628 150.927 42.414C146.453 42.1095 141.732 42.1214 137.805 44.2598C135.694 45.4087 133.94 47.1023 132.246 48.8054C129.956 51.1032 127.666 53.5318 126.447 56.5361C125.604 58.6103 125.316 60.8581 125.06 63.0798C124.905 64.4237 124.762 65.8129 125.146 67.1092C125.414 68.006 125.917 68.8124 126.256 69.6853C126.819 71.1363 126.907 72.7205 127.124 74.2619C127.606 77.6682 128.722 80.9548 130.414 83.9526C130.772 84.5877 131.23 85.2632 131.943 85.425C132.657 85.5867 133.513 84.8017 133.136 84.1833" stroke="black" stroke-miterlimit="10"/>
<path d="M107.141 106.243C108.062 108.767 110.376 110.479 112.571 112.04L118.297 116.112C119.819 117.194 121.382 118.317 122.372 119.897C120.924 120.444 120.263 122.299 120.738 123.769C121.212 125.239 122.575 126.293 124.059 126.768C125.542 127.244 127.117 127.228 128.665 127.14C130.443 127.042 132.304 126.828 133.771 125.822L130.548 123.843C129.698 123.317 128.723 122.48 129.033 121.535L132.432 121.502C132.79 121.502 133.179 121.485 133.463 121.264C133.747 121.043 133.845 120.703 133.964 120.379C134.47 119.071 135.333 117.931 136.455 117.086C137.577 116.242 138.915 115.728 140.315 115.603C141.155 115.541 142.121 115.577 142.701 114.954C143.078 114.54 143.159 113.945 143.226 113.391C143.352 112.335 143.476 111.25 143.266 110.215C143.056 109.181 142.45 108.153 141.477 107.718C140.761 107.394 139.933 107.425 139.151 107.321C135.551 106.845 133.055 103.591 131.123 100.525C129.19 97.4586 127.117 94.0666 123.672 92.9249C122.596 92.6038 121.481 92.4333 120.358 92.4182C117.875 92.3159 115.317 92.5181 113.056 93.5457C108.84 95.4605 105.5 101.752 107.141 106.243Z" fill="#FACC15"/>
<path opacity="0.1" d="M176.337 77.8251L171.804 69.9898C170.65 71.4123 169.328 72.6902 167.865 73.7956C167.798 73.8624 167.717 73.9139 167.629 73.9467C167.54 73.9796 167.445 73.9929 167.35 73.9859C167.157 73.9384 167.05 73.7338 166.973 73.5483C166.51 72.4352 166.167 71.2757 165.952 70.0897C165.562 70.8702 164.997 71.5507 164.3 72.0786C163.604 72.6066 162.796 72.9678 161.937 73.1344V68.8528C158.802 70.4964 157.695 74.3118 156.015 77.416C155.76 77.8917 155.457 78.3793 154.966 78.6053C154.558 78.746 154.123 78.7852 153.697 78.7195L149.879 78.4364C149.718 79.79 149.393 81.1191 148.911 82.3945C147.761 80.6301 146.164 79.1989 144.283 78.2452C142.402 77.2914 140.302 76.8487 138.194 76.9616C136.111 77.0996 133.759 78.132 133.353 80.1752L133.151 79.9516C133.535 80.5725 132.673 81.3574 131.958 81.1957C131.242 81.0339 130.786 80.3584 130.428 79.7233C128.74 76.7222 127.63 73.4332 127.153 70.0255C126.936 68.4841 126.847 66.8999 126.284 65.4489C125.946 64.576 125.442 63.7696 125.175 62.8728C125.175 62.8419 125.158 62.8134 125.151 62.7824C125.13 62.9608 125.108 63.1392 125.089 63.3176C124.934 64.664 124.791 66.0507 125.175 67.3614C125.442 68.2581 125.946 69.0645 126.284 69.9351C126.847 71.3884 126.936 72.9703 127.153 74.514C127.629 77.9212 128.74 81.2095 130.428 84.2094C130.786 84.8445 131.244 85.5225 131.958 85.6842C132.671 85.846 133.527 85.061 133.151 84.4402L133.353 84.6614C133.759 82.6205 136.111 81.5858 138.194 81.4502C140.301 81.3363 142.402 81.7783 144.283 82.7317C146.165 83.6851 147.761 85.1162 148.911 86.8807C149.393 85.6062 149.719 84.2778 149.879 82.925L153.697 83.2056C154.123 83.2721 154.559 83.2329 154.966 83.0915C155.457 82.8726 155.76 82.3779 156.015 81.9021C157.686 78.7908 158.802 74.9778 161.937 73.3389V77.6205C162.796 77.454 163.604 77.0927 164.3 76.5648C164.997 76.0368 165.562 75.3563 165.952 74.5759C166.168 75.7617 166.51 76.9212 166.973 78.0344C167.05 78.2176 167.157 78.4245 167.35 78.4697C167.445 78.4777 167.54 78.465 167.629 78.4325C167.718 78.4001 167.798 78.3486 167.865 78.2818C169.328 77.1764 170.65 75.8985 171.804 74.476L176.337 82.3113C177.972 78.1535 178.645 73.6816 178.305 69.2286C178.086 72.1764 177.423 75.0744 176.337 77.8251Z" fill="black"/>
</g>
<defs>
<clipPath id="clip0_36_98">
<rect width="261" height="193" fill="white"/>
</clipPath>
</defs>
</svg>
